<svg id="Layer_1" data-name="Layer 1" xmlns="http://www.w3.org/2000/svg" viewBox="0 0 270 126"><defs><clipPath id="clip-path"><path class="cls-3" d="M36.45 44.98h288.89v16.25H36.45z"/></clipPath><clipPath id="clip-path-2"><path class="cls-3" d="M85.78 18.95h172.35v68.31H85.78z"/></clipPath><filter id="luminosity-noclip" x="36.45" y="18.95" width="288.89" height="68.31" filterUnits="userSpaceOnUse" color-interpolation-filters="sRGB"><feFlood flood-color="#fff" result="bg"/><feBlend in="SourceGraphic" in2="bg"/></filter><style>.cls-3,.cls-4{fill:none}.cls-4{stroke:#010101;stroke-miterlimit:10}.cls-6{fill:#37529c}</style><mask id="mask" x="36.45" y="18.95" width="288.89" height="68.31" maskUnits="userSpaceOnUse"><g style="isolation:isolate" filter="url(#luminosity-noclip)"><g clip-path="url(#clip-path)"><path class="cls-4" d="M36.45 45.78h288.89"/><path stroke-width=".5" stroke="#010101" stroke-miterlimit="10" fill="none" d="M36.45 53.11h288.89"/><path class="cls-4" d="M36.45 60.43h288.89"/></g></g></mask></defs><path class="cls-6" d="M19.68 115.53h-2.19l-6.7-11.72v11.72H8.6V99.69h2.19l6.7 11.77V99.69h2.19v15.84zm5.24-2.53v-6.23a2.48 2.48 0 012.49-2.52h4.14a2.53 2.53 0 012.55 2.52V113a2.54 2.54 0 01-2.55 2.52h-4.14a2.48 2.48 0 01-2.49-2.52m7-5.76a1 1 0 00-1-1H28.1a1 1 0 00-1 1v5.28a1 1 0 001 1h2.79a1 1 0 001-1zm12.93-1.08a16.13 16.13 0 00-2.09 1.09c-.93.6-1.36 1.1-1.36 1.9v6.38h-2.19v-11.27h2.19v1.49a19.53 19.53 0 013.3-1.75zm9.78 9.37h-2.5a2.49 2.49 0 01-2.5-2.52v-6.85h-1.76v-1.9h1.76v-3.07h2.19v3.07h2.81v1.9h-2.81v6.44a1 1 0 001 1h1.79zm4.16 0V99.69H61V105a12.94 12.94 0 014.18-1 2.38 2.38 0 012.54 2.52v9h-2.2v-8.37a.92.92 0 00-1-1 8 8 0 00-2.53.64c-.54.22-1 .5-1 1v7.73zm23.48-7.66c-1.41-.4-2.5-1.12-2.5-2.56v-3a2.6 2.6 0 012.62-2.62h4.7a2.61 2.61 0 012.62 2.62v2.19h-2.26v-1.72a1 1 0 00-1-1H83a1 1 0 00-1 1v2c0 .61.4.88 1 1 1.73.5 2.44.69 4.3 1.21 1.35.38 2.47 1.12 2.47 2.57v3.28a2.6 2.6 0 01-2.62 2.62h-4.83a2.61 2.61 0 01-2.62-2.62v-2.09H82v1.62a1 1 0 001 1h3.5a1 1 0 001-1v-2.33c0-.57-.26-.81-1-1l-4.26-1.21m12.76 7.7V99.69h2.19V105a12.94 12.94 0 014.18-1 2.39 2.39 0 012.55 2.52v9h-2.22v-8.37a.92.92 0 00-1-1 7.92 7.92 0 00-2.52.64c-.55.22-1 .5-1 1v7.73zm13.89-2.53v-6.23a2.48 2.48 0 012.5-2.52h4.13a2.52 2.52 0 012.54 2.52V113a2.53 2.53 0 01-2.54 2.52h-4.13a2.49 2.49 0 01-2.5-2.52m7-5.76a1 1 0 00-1-1h-2.78a1 1 0 00-1 1v5.28a1 1 0 001 1h2.78a1 1 0 001-1zm12.93-1.08a15.51 15.51 0 00-2.09 1.09c-.93.6-1.36 1.1-1.36 1.9v6.38h-2.19v-11.27h2.19v1.49a18.89 18.89 0 013.31-1.73zm6.68 7.44h2.5a1 1 0 001-1v-.5h2.12v.9a2.47 2.47 0 01-2.5 2.5h-3.78a2.48 2.48 0 01-2.49-2.52v-6.23a2.48 2.48 0 012.49-2.52h3.78a2.5 2.5 0 012.52 2.52v3.78h-6.64v2a1 1 0 001 1m-1-4.95h4.5v-1.49a1 1 0 00-1-1h-2.5a1 1 0 00-1 1zm29.73 6.95h-2.18l-6.71-11.72v11.72h-2.18V99.69h2.18l6.71 11.77V99.69h2.18v15.84zm8.43-1.93h2.47a1 1 0 001-1v-.5h2.12v.9a2.48 2.48 0 01-2.5 2.5H172a2.49 2.49 0 01-2.5-2.52v-6.23a2.49 2.49 0 012.5-2.52h3.78a2.51 2.51 0 012.52 2.52v3.78h-6.61v2a1 1 0 001 1m-1-4.95h4.49v-1.49a1 1 0 00-1-1h-2.47a1 1 0 00-1 1zm20.37-4.32v11.27h-2.14v-.81a12.64 12.64 0 01-4.23 1 2.37 2.37 0 01-2.54-2.51v-9h2.19v8.37a.91.91 0 001 1 7.66 7.66 0 002.52-.64c.55-.21 1-.5 1-1v-7.7zm11 1.9a16.23 16.23 0 00-2.1 1.09c-.92.6-1.35 1.1-1.35 1.9v6.38h-2.19v-11.27h2.19v1.49a18.89 18.89 0 013.31-1.73zm3.5 6.84v-6.23a2.48 2.48 0 012.5-2.52h4.13a2.52 2.52 0 012.54 2.52V113a2.53 2.53 0 01-2.54 2.52h-4.13a2.49 2.49 0 01-2.5-2.52m7-5.76a1 1 0 00-1-1h-2.78a1 1 0 00-1 1v5.28a1 1 0 001 1h2.78a1 1 0 001-1zm7.29-7.55h2.19v15.83h-2.19zm7.31 13.31v-6.23a2.48 2.48 0 012.49-2.52h4.14a2.52 2.52 0 012.54 2.52V113a2.53 2.53 0 01-2.54 2.52h-4.14a2.48 2.48 0 01-2.49-2.52m7-5.76a1 1 0 00-1-1h-2.78a1 1 0 00-1 1v5.28a1 1 0 001 1h2.78a1 1 0 001-1zm15.97-2.98v13.26a2.49 2.49 0 01-2.5 2.52h-5.37v-1.87h4.68a1 1 0 001-1v-2.9a12.72 12.72 0 01-4.18 1 2.38 2.38 0 01-2.55-2.52v-6.23a2.38 2.38 0 012.55-2.52 12.88 12.88 0 014.18 1v-.78zm-2.19 3.49c-.05-.5-.45-.78-1-1a7.92 7.92 0 00-2.52-.64.92.92 0 00-1 1v5.09a.92.92 0 001 1 7.7 7.7 0 002.52-.65c.55-.21.95-.5 1-1zm8.45 12.29l1.38-4.54-3.83-11.24h2.33l2.64 8.41 2.69-8.41h2.28l-3.81 11.27-1.5 4.51h-2.18z"/><g clip-path="url(#clip-path-2)" mask="url(#mask)"><path class="cls-6" d="M194.21 22.7a11.24 11.24 0 00-8.59-3.7h-19.13a14.3 14.3 0 00-14 12.36L151 43.48c-.78 6.1 2.66 10.33 10.21 12.58 3.75 1.13 6.12 1.82 8.61 2.56 2.23.65 4.56 1.33 8.06 2.37 2.3.69 2.26 1 2.13 2l-1.21 9.47a2.83 2.83 0 01-2.72 2.42h-14.3a1.66 1.66 0 01-1.29-.52 1.74 1.74 0 01-.37-1.4l1.12-8.81h-13.17l-1.31 10.25a11.4 11.4 0 002.65 9.11 11.24 11.24 0 008.59 3.75h19.71a14.3 14.3 0 0013.95-12.36l1.7-13.33c.54-4.25-.78-9.87-10.13-12.59L176.56 47c-3.22-.93-5.91-1.71-10.18-3-2.2-.67-2.12-1.3-2-2.1l1-8.22a2.8 2.8 0 012.62-2.36h13.81a1.67 1.67 0 011.3.52 1.77 1.77 0 01.36 1.4l-1.17 9.2h13.18l1.35-10.63a11.42 11.42 0 00-2.65-9.11M125.2 61.44l-18.8-42.49H94.48l-8.7 68.31h12.88l5.39-42.33 18.82 42.33h11.92l8.7-68.31h-12.88l-5.41 42.49zm120.04-42.49l-5.41 42.49-18.79-42.49h-11.93l-8.7 68.31h12.89l5.39-42.33 18.81 42.33h11.93l8.7-68.31h-12.89z"/></g><path class="cls-6" d="M4.13 66.55l12.1-13.46.09-.08a2 2 0 011.18-.55h.12l10.26-1.66a3 3 0 001.83-5.18l-4-5.14a1.91 1.91 0 00-2.7.15L16.2 48.2a2 2 0 01-3.48-1.23 2 2 0 01.51-1.44L16.32 42a1.91 1.91 0 00-1.52-3.18l-8.66.46a2 2 0 01-.21-4l18.07-1h.1a2 2 0 011.27.45l.08.07 8.43 6.2a3 3 0 005-2.37l.78-6.49a1.93 1.93 0 00-2-1.81l-10.17.54a2 2 0 11-.21-4l4.65-.25a1.91 1.91 0 001.18-3.33l-6.45-5.8a2 2 0 112.67-3l13.46 12.1.08.08a2 2 0 01.56 1.2v.11l1.66 10.26a3 3 0 005.18 1.83l5.14-4.05a1.9 1.9 0 00-.14-2.69l-7.58-6.82a1.92 1.92 0 01-.69-1.34 2 2 0 013.32-1.59l3.48 3.12a1.92 1.92 0 003.2-1.52l-.46-8.67a2 2 0 014-.21l1 18.08a2 2 0 01-.21 1 1.28 1.28 0 01-.15.25c0 .06-.1.13-.16.19l-6.08 8.43a3 3 0 002.37 5l6.49.77a1.9 1.9 0 001.81-2L65 37.81a2 2 0 114-.21l.24 4.66a1.91 1.91 0 003.33 1.18L78.36 37a2 2 0 113 2.67L69.22 53.12l-.11.11a2 2 0 01-1.16.53h-.11l-10.27 1.67a3 3 0 00-1.84 5.19l4.05 5.14a1.91 1.91 0 002.7-.15L69.29 58a2 2 0 113 2.67l-3.12 3.47a1.91 1.91 0 001.52 3.18l8.66-.46a2 2 0 11.21 4l-18.07 1a2 2 0 01-1.36-.45l-.13-.08-8.43-6.08a3 3 0 00-5 2.36l-.77 6.5a1.91 1.91 0 002 1.81l10.2-.54a2 2 0 01.21 4l-4.66.24a1.91 1.91 0 00-1.17 3.33l6.44 5.8a2 2 0 01.18 2.81 1.92 1.92 0 01-1.37.65 2 2 0 01-1.44-.5L42.72 79.6l-.1-.09a1.93 1.93 0 01-.54-1.18.49.49 0 010-.12L40.4 67.94a3 3 0 00-5.19-1.83l-5.14 4a1.9 1.9 0 00.15 2.69l7.57 6.82a2 2 0 01.66 1.38 2 2 0 01-.51 1.44 2 2 0 01-2.82.15l-3.47-3.12A1.91 1.91 0 0028.47 81l.46 8.66a2 2 0 01-4 .21L24 71.83a.49.49 0 010-.12 2 2 0 01.45-1.23l.08-.08 6.06-8.4a3 3 0 00-2.37-5l-6.5-.77a1.9 1.9 0 00-1.8 2l.54 10.18a2 2 0 01-4 .21L16.22 64a1.91 1.91 0 00-3.32-1.18l-5.8 6.4a2 2 0 01-3-2.67"/><path d="M47 50.47l-2.44.13-.14-2.6a2 2 0 10-4 .21l.14 2.56L38 51a2 2 0 10.21 4l2.56-.13.13 2.44a2 2 0 004-.21l-.13-2.44 2.44-.13a2 2 0 00-.21-4" fill="#ccc"/></svg>