<?xml version="1.0" encoding="utf-8"?>
<!-- Generator: Adobe Illustrator 19.1.0, SVG Export Plug-In . SVG Version: 6.00 Build 0)  -->
<svg version="1.1" id="Layer_1" xmlns="http://www.w3.org/2000/svg" xmlns:xlink="http://www.w3.org/1999/xlink" x="0px" y="0px"
	 viewBox="0 0 638.1 115.2" style="enable-background:new 0 0 638.1 115.2;" xml:space="preserve">
<style type="text/css">
	.st0{fill:#00BCE4;}
	.st1{fill:#F28D1E;}
	.st2{fill:#4C7300;}
</style>
<g>
	<g>
		<path class="st0" d="M199.5,104.5c-11.2,0-26.4-4.8-26.4-16V45.9h-3.8c-2.1,0-3.9-1.7-3.9-3.8c0-2.1,1.8-3.9,3.9-3.9h3.8V18.6
			c0-2.1,1.7-3.9,3.9-3.9c2.1,0,3.8,1.8,3.8,3.9v19.6h22.6v7.8h-22.6v43.5c3.9,4.4,10.1,7.4,18.6,7.4c2.1,0,3.9,1.8,3.9,3.9
			S201.6,104.5,199.5,104.5z"/>
		<path class="st0" d="M227.3,74.8v14.6c3.9,4.4,10.1,7.4,18.6,7.4c9.5,0,14.7-1.7,18.5-3c2-0.7,4.2,0.4,4.9,2.4
			c0.7,2-0.4,4.2-2.4,4.9c-6.4,2.4-12.1,3.5-21,3.5c-11.3,0-26.4-4.8-26.4-16V53.2c0-11.2,15-16,26.4-16c11.2,0,26.4,4.8,26.4,16
			v21.6H227.3z M245.9,44.9c-8.5,0-14.7,2.9-18.6,7.4v14.6h37.1V52.3C260.6,47.8,254.3,44.9,245.9,44.9z"/>
		<path class="st0" d="M338.8,103.5l-28.8-33.1l-11.5,9.9v23.2h-7.8V14.1c0-2.3,1.8-3.9,3.9-3.9c2.1,0,3.8,1.7,3.8,3.9v56.7
			L336.3,38c1.6-1.3,3.8-1.2,5.2,0.3c1.3,1.6,1.1,3.8-0.5,5.3L316,65.3l33.1,38.2H338.8z"/>
		<path class="st0" d="M430.8,101.6c-0.5,1.5-1.8,2.9-3.3,2.9c-1.7,0-3-1.2-3.5-2.7l-19.6-61.1l-19.7,61.1c-0.5,1.5-1.8,2.7-3.5,2.7
			c-1.6,0-2.9-1.3-3.3-2.9l-24-90.5h7.6l20.2,75.8l19-59.3c0.6-1.7,1.9-2.7,3.7-2.7c1.7,0,3,1.1,3.6,2.7l19,59.3l20.2-75.8h7.6
			L430.8,101.6z"/>
		<path class="st0" d="M489.6,104.5c-11.3,0-26.4-4.8-26.4-16V53.2c0-11.2,15-16,26.4-16c11.2,0,26.4,4.8,26.4,16v35.3
			C516,99.7,500.8,104.5,489.6,104.5z M508.1,52.3c-3.8-4.5-10-7.4-18.5-7.4c-8.5,0-14.7,2.9-18.6,7.4v37c3.9,4.4,10.1,7.4,18.6,7.4
			c8.5,0,14.7-3,18.5-7.4V52.3z"/>
		<path class="st0" d="M573,46.7c-3.2-1.1-6.8-1.8-11-1.8c-8.5,0-14,2.5-18.6,5.7v52.9h-7.8v-52c0-10.3,14.7-14.3,26.4-14.3
			c4.3,0,9.2,0.7,13.5,2.1c2,0.7,3.1,3,2.4,5C577.2,46.4,575.1,47.4,573,46.7z"/>
		<path class="st0" d="M637,103.7c-1.7,1.3-4.2,1-5.5-0.7L612,77.2l-19.7,25.8c-1.2,1.7-3.7,2-5.4,0.7c-1.8-1.3-2-3.7-0.7-5.5
			l20.9-27.3l-20.9-27.3c-1.3-1.8-1.1-4.2,0.7-5.5c1.7-1.3,4.2-1.1,5.4,0.7L612,64.4l19.6-25.7c1.3-1.8,3.7-2,5.5-0.7
			c1.7,1.3,2,3.7,0.7,5.4l-20.9,27.5l20.9,27.3C639.1,100,638.7,102.3,637,103.7z"/>
	</g>
	<g>
		<path class="st1" d="M161.7,0c-10.6,0-21.3,0-31.9,0c-0.1,0.3-0.2,0.7-0.4,1c-9.4,14.8-18.9,29.6-28.3,44.4
			c1.8,2.8,3.7,5.6,5.5,8.4c1.5,2.4,1.7,4.7,0,7.1c-1.8,2.7-3.4,5.5-5.1,8.2c-0.1,0.2-0.3,0.5-0.4,0.7c0.2,0.3,0.4,0.6,0.6,0.9
			c8.9,14,17.8,27.9,26.6,41.9c0.5,0.8,0.8,1.7,1.2,2.5c10.7,0,21.4,0,32.1,0l-36.5-57.6L161.7,0z"/>
		<path class="st1" d="M121.4,0c-10.6,0-21.3,0-31.9,0c-0.1,0.3-0.2,0.7-0.4,1c-2.7,4.2-5.4,8.5-8.1,12.7c5.3,8.3,10.6,16.7,15.9,25
			L121.4,0z"/>
		<path class="st1" d="M65,38.7c-1.4,2.2-2.8,4.4-4.2,6.7c1.8,2.8,3.7,5.6,5.5,8.4c1.5,2.4,1.7,4.7,0,7.1c-1.8,2.7-3.4,5.5-5.1,8.2
			c-0.1,0.2-0.3,0.5-0.4,0.7c0.2,0.3,0.4,0.6,0.6,0.9c1.2,1.9,2.4,3.9,3.7,5.8l12-18.9L65,38.7z"/>
		<path class="st1" d="M88,112.7c0.5,0.8,0.8,1.7,1.2,2.5c10.7,0,21.4,0,32.1,0L96.8,76.5c-5.3,8.3-10.6,16.7-15.9,25
			C83.2,105.2,85.6,108.9,88,112.7z"/>
		<path class="st0" d="M55.2,54.2c1.8-2.7,3.4-5.5,5.1-8.2c0.1-0.2,0.3-0.5,0.4-0.7c-0.2-0.3-0.4-0.6-0.6-0.9
			c-8.9-14-17.8-27.9-26.6-41.9c-0.5-0.8-0.8-1.7-1.2-2.5C21.6,0,10.9,0,0.2,0l36.5,57.6L0.2,115.2c10.6,0,21.3,0,31.9,0
			c0.1-0.3,0.2-0.7,0.4-1c9.4-14.8,18.9-29.6,28.3-44.4c-1.8-2.8-3.7-5.6-5.5-8.4C53.7,59,53.5,56.7,55.2,54.2z"/>
		<path class="st2" d="M66.3,60.9c1.7-2.5,1.5-4.8,0-7.1c-1.8-2.8-3.7-5.6-5.5-8.4c-0.1,0.2-0.3,0.5-0.4,0.7
			c-1.7,2.7-3.3,5.5-5.1,8.2c-1.7,2.5-1.5,4.8,0,7.1c1.8,2.8,3.7,5.6,5.5,8.4c0.1-0.2,0.3-0.5,0.4-0.7
			C62.9,66.4,64.5,63.6,66.3,60.9z"/>
		<path class="st0" d="M73.9,2.5c-0.5-0.8-0.8-1.7-1.2-2.5C61.9,0,51.2,0,40.5,0L65,38.7c5.3-8.3,10.6-16.7,15.9-25
			C78.6,10,76.3,6.2,73.9,2.5z"/>
		<path class="st0" d="M40.5,115.2c10.6,0,21.3,0,31.9,0c0.1-0.3,0.2-0.7,0.4-1c2.7-4.2,5.4-8.5,8.1-12.7
			c-5.3-8.3-10.6-16.7-15.9-25L40.5,115.2z"/>
		<path class="st0" d="M95.5,54.2c1.8-2.7,3.4-5.5,5.1-8.2c0.1-0.2,0.3-0.5,0.4-0.7c-0.2-0.3-0.4-0.6-0.6-0.9
			c-1.2-1.9-2.4-3.9-3.7-5.8l-12,18.9l12,18.9c1.4-2.2,2.8-4.4,4.2-6.7c-1.8-2.8-3.7-5.6-5.5-8.4C94,59,93.9,56.7,95.5,54.2z"/>
		<path class="st2" d="M106.7,60.9c1.7-2.5,1.5-4.8,0-7.1c-1.8-2.8-3.7-5.6-5.5-8.4c-0.1,0.2-0.3,0.5-0.4,0.7
			c-1.7,2.7-3.3,5.5-5.1,8.2c-1.7,2.5-1.5,4.8,0,7.1c1.8,2.8,3.7,5.6,5.5,8.4c0.1-0.2,0.3-0.5,0.4-0.7
			C103.3,66.4,104.9,63.6,106.7,60.9z"/>
		<path class="st2" d="M96.9,38.7C91.6,30.3,86.3,22,81,13.7C75.7,22,70.4,30.4,65,38.7l12,18.9L65,76.5c5.3,8.3,10.6,16.6,15.9,25
			c5.3-8.3,10.6-16.7,15.9-25l-12-18.9L96.9,38.7z"/>
	</g>
</g>
</svg>
